<svg xmlns="http://www.w3.org/2000/svg" xmlns:xlink="http://www.w3.org/1999/xlink" width="500" zoomAndPan="magnify" viewBox="0 0 375 374.999991" height="500" preserveAspectRatio="xMidYMid meet" version="1.2"><defs><clipPath id="a3f2d50aea"><path d="M 117 90.113281 L 230.457031 90.113281 L 230.457031 176 L 117 176 Z M 117 90.113281 "/></clipPath><clipPath id="5abeb1d909"><path d="M 223.6875 101.035156 L 149.359375 175.550781 L 140.320312 166.488281 L 126.832031 152.96875 L 117.796875 143.910156 L 164.675781 96.90625 C 164.585938 96.511719 164.539062 96.101562 164.539062 95.675781 C 164.539062 92.640625 166.992188 90.179688 170.019531 90.179688 C 173.046875 90.179688 175.503906 92.640625 175.503906 95.675781 C 175.503906 98.710938 173.046875 101.175781 170.019531 101.175781 C 169.597656 101.175781 169.1875 101.125 168.789062 101.035156 L 126.027344 143.910156 L 130.949219 148.839844 L 182.75 96.90625 C 182.664062 96.511719 182.617188 96.101562 182.617188 95.675781 C 182.617188 92.640625 185.066406 90.179688 188.09375 90.179688 C 191.121094 90.179688 193.582031 92.640625 193.582031 95.675781 C 193.582031 98.710938 191.121094 101.175781 188.09375 101.175781 C 187.675781 101.175781 187.261719 101.125 186.867188 101.035156 L 135.0625 152.96875 L 140.320312 158.238281 L 201.496094 96.90625 C 201.40625 96.511719 201.359375 96.101562 201.359375 95.675781 C 201.359375 92.640625 203.8125 90.179688 206.839844 90.179688 C 209.867188 90.179688 212.324219 92.640625 212.324219 95.675781 C 212.324219 98.710938 209.867188 101.175781 206.839844 101.175781 C 206.417969 101.175781 206.007812 101.125 205.613281 101.035156 L 144.4375 162.363281 L 149.359375 167.296875 L 219.570312 96.90625 C 219.484375 96.511719 219.433594 96.101562 219.433594 95.675781 C 219.433594 92.640625 221.886719 90.179688 224.914062 90.179688 C 227.941406 90.179688 230.398438 92.640625 230.398438 95.675781 C 230.398438 98.710938 227.941406 101.175781 224.914062 101.175781 C 224.496094 101.171875 224.085938 101.125 223.6875 101.035156 "/></clipPath><radialGradient gradientTransform="matrix(0.998737,0,0,1.001263,6.956994,90.180298)" id="7f6735af84" gradientUnits="userSpaceOnUse" r="49.976049" cx="167.350969" fx="167.350969" cy="42.630157" fy="42.630157"><stop style="stop-color:#130c0e;stop-opacity:1;" offset="0"/><stop style="stop-color:#130c0e;stop-opacity:1;" offset="1"/></radialGradient><clipPath id="76e051085b"><path d="M 117.796875 90.179688 L 230.398438 90.179688 L 230.398438 175.550781 L 117.796875 175.550781 Z M 117.796875 90.179688 "/></clipPath><clipPath id="0f9fad3afc"><path d="M 223.6875 101.035156 L 149.359375 175.550781 L 140.320312 166.488281 L 126.832031 152.96875 L 117.796875 143.910156 L 164.675781 96.90625 C 164.585938 96.511719 164.539062 96.101562 164.539062 95.675781 C 164.539062 92.640625 166.992188 90.179688 170.019531 90.179688 C 173.046875 90.179688 175.503906 92.640625 175.503906 95.675781 C 175.503906 98.710938 173.046875 101.175781 170.019531 101.175781 C 169.597656 101.175781 169.1875 101.125 168.789062 101.035156 L 126.027344 143.910156 L 130.949219 148.839844 L 182.75 96.90625 C 182.664062 96.511719 182.617188 96.101562 182.617188 95.675781 C 182.617188 92.640625 185.066406 90.179688 188.09375 90.179688 C 191.121094 90.179688 193.582031 92.640625 193.582031 95.675781 C 193.582031 98.710938 191.121094 101.175781 188.09375 101.175781 C 187.675781 101.175781 187.261719 101.125 186.867188 101.035156 L 135.0625 152.96875 L 140.320312 158.238281 L 201.496094 96.90625 C 201.40625 96.511719 201.359375 96.101562 201.359375 95.675781 C 201.359375 92.640625 203.8125 90.179688 206.839844 90.179688 C 209.867188 90.179688 212.324219 92.640625 212.324219 95.675781 C 212.324219 98.710938 209.867188 101.175781 206.839844 101.175781 C 206.417969 101.175781 206.007812 101.125 205.613281 101.035156 L 144.4375 162.363281 L 149.359375 167.296875 L 219.570312 96.90625 C 219.484375 96.511719 219.433594 96.101562 219.433594 95.675781 C 219.433594 92.640625 221.886719 90.179688 224.914062 90.179688 C 227.941406 90.179688 230.398438 92.640625 230.398438 95.675781 C 230.398438 98.710938 227.941406 101.175781 224.914062 101.175781 C 224.496094 101.171875 224.085938 101.125 223.6875 101.035156 "/></clipPath><radialGradient gradientTransform="matrix(0.998737,0,0,1.001263,6.956994,90.180298)" id="9c2a91f55d" gradientUnits="userSpaceOnUse" r="49.976049" cx="167.350969" fx="167.350969" cy="42.630157" fy="42.630157"><stop style="stop-color:#130c0e;stop-opacity:1;" offset="0"/><stop style="stop-color:#130c0e;stop-opacity:1;" offset="1"/></radialGradient><clipPath id="49041b7521"><path d="M 117 183 L 230.457031 183 L 230.457031 269.363281 L 117 269.363281 Z M 117 183 "/></clipPath><clipPath id="ab79a5f63f"><path d="M 223.746094 258.417969 L 149.417969 183.902344 L 140.378906 192.960938 L 126.890625 206.488281 L 117.855469 215.550781 L 164.734375 262.546875 C 164.648438 262.945312 164.597656 263.355469 164.597656 263.777344 C 164.597656 266.8125 167.050781 269.277344 170.078125 269.277344 C 173.105469 269.277344 175.566406 266.8125 175.566406 263.777344 C 175.566406 260.742188 173.105469 258.285156 170.078125 258.285156 C 169.660156 258.285156 169.246094 258.332031 168.851562 258.417969 L 126.089844 215.550781 L 131.007812 210.613281 L 182.8125 262.546875 C 182.722656 262.941406 182.675781 263.355469 182.675781 263.777344 C 182.675781 266.8125 185.128906 269.277344 188.15625 269.277344 C 191.183594 269.277344 193.640625 266.8125 193.640625 263.777344 C 193.640625 260.742188 191.183594 258.285156 188.15625 258.285156 C 187.734375 258.285156 187.324219 258.332031 186.925781 258.417969 L 135.125 206.488281 L 140.378906 201.214844 L 201.554688 262.546875 C 201.46875 262.941406 201.421875 263.355469 201.421875 263.777344 C 201.421875 266.8125 203.871094 269.277344 206.898438 269.277344 C 209.925781 269.277344 212.382812 266.8125 212.382812 263.777344 C 212.382812 260.742188 209.925781 258.285156 206.898438 258.285156 C 206.480469 258.285156 206.066406 258.332031 205.671875 258.417969 L 144.496094 197.089844 L 149.417969 192.15625 L 219.632812 262.546875 C 219.539062 262.941406 219.492188 263.355469 219.492188 263.777344 C 219.492188 266.8125 221.949219 269.277344 224.976562 269.277344 C 228.003906 269.277344 230.457031 266.8125 230.457031 263.777344 C 230.457031 260.742188 228.003906 258.285156 224.976562 258.285156 C 224.554688 258.285156 224.144531 258.332031 223.746094 258.417969 "/></clipPath><radialGradient gradientTransform="matrix(0.998737,0,0,1.001263,6.956994,90.180298)" id="843f102e37" gradientUnits="userSpaceOnUse" r="49.976496" cx="167.410942" fx="167.410942" cy="136.238017" fy="136.238017"><stop style="stop-color:#130c0e;stop-opacity:1;" offset="0"/><stop style="stop-color:#130c0e;stop-opacity:1;" offset="1"/></radialGradient><clipPath id="dc4d26fb3e"><path d="M 117.855469 183.902344 L 230.457031 183.902344 L 230.457031 269.277344 L 117.855469 269.277344 Z M 117.855469 183.902344 "/></clipPath><clipPath id="484e811670"><path d="M 223.746094 258.417969 L 149.417969 183.902344 L 140.378906 192.960938 L 126.890625 206.488281 L 117.855469 215.550781 L 164.734375 262.546875 C 164.648438 262.945312 164.597656 263.355469 164.597656 263.777344 C 164.597656 266.8125 167.050781 269.277344 170.078125 269.277344 C 173.105469 269.277344 175.566406 266.8125 175.566406 263.777344 C 175.566406 260.742188 173.105469 258.285156 170.078125 258.285156 C 169.660156 258.285156 169.246094 258.332031 168.851562 258.417969 L 126.089844 215.550781 L 131.007812 210.613281 L 182.8125 262.546875 C 182.722656 262.941406 182.675781 263.355469 182.675781 263.777344 C 182.675781 266.8125 185.128906 269.277344 188.15625 269.277344 C 191.183594 269.277344 193.640625 266.8125 193.640625 263.777344 C 193.640625 260.742188 191.183594 258.285156 188.15625 258.285156 C 187.734375 258.285156 187.324219 258.332031 186.925781 258.417969 L 135.125 206.488281 L 140.378906 201.214844 L 201.554688 262.546875 C 201.46875 262.941406 201.421875 263.355469 201.421875 263.777344 C 201.421875 266.8125 203.871094 269.277344 206.898438 269.277344 C 209.925781 269.277344 212.382812 266.8125 212.382812 263.777344 C 212.382812 260.742188 209.925781 258.285156 206.898438 258.285156 C 206.480469 258.285156 206.066406 258.332031 205.671875 258.417969 L 144.496094 197.089844 L 149.417969 192.15625 L 219.632812 262.546875 C 219.539062 262.941406 219.492188 263.355469 219.492188 263.777344 C 219.492188 266.8125 221.949219 269.277344 224.976562 269.277344 C 228.003906 269.277344 230.457031 266.8125 230.457031 263.777344 C 230.457031 260.742188 228.003906 258.285156 224.976562 258.285156 C 224.554688 258.285156 224.144531 258.332031 223.746094 258.417969 "/></clipPath><radialGradient gradientTransform="matrix(0.998737,0,0,1.001263,6.956994,90.180298)" id="497681bd45" gradientUnits="userSpaceOnUse" r="49.976496" cx="167.410942" fx="167.410942" cy="136.238017" fy="136.238017"><stop style="stop-color:#130c0e;stop-opacity:1;" offset="0"/><stop style="stop-color:#130c0e;stop-opacity:1;" offset="1"/></radialGradient><clipPath id="6e0bdd0108"><path d="M 6.957031 96 L 146 96 L 146 264 L 6.957031 264 Z M 6.957031 96 "/></clipPath><clipPath id="201c7f0e93"><path d="M 30.585938 96.117188 L 6.957031 96.117188 L 90.328125 179.699219 L 6.957031 263.28125 L 30.585938 263.28125 L 113.957031 179.699219 Z M 117.777344 152.179688 L 61.851562 96.117188 L 38.820312 96.117188 L 122.191406 179.699219 L 38.820312 263.28125 L 61.851562 263.28125 L 117.777344 207.210938 L 145.222656 179.699219 Z M 117.777344 152.179688 "/></clipPath><radialGradient gradientTransform="matrix(0.998737,0,0,1.001263,6.956994,90.180298)" id="7fd28f2c71" gradientUnits="userSpaceOnUse" r="76.680037" cx="69.219572" fx="69.219572" cy="89.404321" fy="89.404321"><stop style="stop-color:#130c0e;stop-opacity:1;" offset="0"/><stop style="stop-color:#130c0e;stop-opacity:1;" offset="1"/></radialGradient><clipPath id="a03a54ba26"><path d="M 365 221 L 368 221 L 368 272 L 365 272 Z M 365 221 "/></clipPath><clipPath id="0496fe3df4"><path d="M 261.847656 170.667969 L 367.914062 276.734375 L 307.457031 337.191406 L 201.390625 231.125 Z M 261.847656 170.667969 "/></clipPath><clipPath id="6d2d5c40e6"><path d="M 324.988281 107.527344 L 483.027344 265.566406 L 356.277344 392.316406 L 198.238281 234.277344 Z M 324.988281 107.527344 "/></clipPath><clipPath id="cabb7094fc"><path d="M 324.988281 107.527344 L 483.027344 265.566406 L 356.277344 392.316406 L 198.238281 234.277344 Z M 324.988281 107.527344 "/></clipPath><clipPath id="6ae1e29818"><path d="M 470.519531 268.5 L 365.269531 268.632812 L 365.285156 255.835938 L 365.308594 236.734375 L 365.324219 223.941406 L 431.707031 223.855469 C 431.925781 223.511719 432.183594 223.1875 432.484375 222.886719 C 434.628906 220.742188 438.105469 220.738281 440.246094 222.875 C 442.386719 225.015625 442.382812 228.496094 440.238281 230.640625 C 438.089844 232.785156 434.613281 232.792969 432.472656 230.648438 C 432.171875 230.351562 431.917969 230.027344 431.703125 229.683594 L 371.144531 229.761719 L 371.136719 236.730469 L 444.492188 236.636719 C 444.707031 236.292969 444.964844 235.96875 445.265625 235.667969 C 447.410156 233.523438 450.886719 233.519531 453.027344 235.660156 C 455.167969 237.800781 455.164062 241.277344 453.019531 243.421875 C 450.875 245.566406 447.394531 245.574219 445.253906 243.433594 C 444.953125 243.132812 444.699219 242.808594 444.484375 242.464844 L 371.128906 242.558594 L 371.121094 250 L 457.746094 249.890625 C 457.960938 249.546875 458.21875 249.222656 458.519531 248.921875 C 460.664062 246.777344 464.140625 246.773438 466.28125 248.914062 C 468.421875 251.054688 468.417969 254.53125 466.273438 256.675781 C 464.128906 258.824219 460.648438 258.828125 458.507812 256.6875 C 458.210938 256.386719 457.953125 256.0625 457.738281 255.71875 L 371.113281 255.828125 L 371.105469 262.796875 L 470.527344 262.671875 C 470.742188 262.328125 471 262.003906 471.300781 261.703125 C 473.445312 259.554688 476.921875 259.554688 479.0625 261.695312 C 481.203125 263.835938 481.199219 267.308594 479.054688 269.457031 C 476.90625 271.601562 473.429688 271.609375 471.289062 269.46875 C 470.992188 269.171875 470.734375 268.84375 470.519531 268.5 "/></clipPath><radialGradient gradientTransform="matrix(0.706213,0.706213,-0.708,0.708,324.942227,107.574307)" id="4ce21ad984" gradientUnits="userSpaceOnUse" r="49.97605" cx="167.350971" fx="167.350971" cy="42.630158" fy="42.630158"><stop style="stop-color:#130c0e;stop-opacity:1;" offset="0"/><stop style="stop-color:#130c0e;stop-opacity:1;" offset="1"/></radialGradient><clipPath id="65242a9fcf"><path d="M 365 221 L 368 221 L 368 272 L 365 272 Z M 365 221 "/></clipPath><clipPath id="16b35d26b0"><path d="M 261.847656 170.667969 L 367.914062 276.734375 L 307.457031 337.191406 L 201.390625 231.125 Z M 261.847656 170.667969 "/></clipPath><clipPath id="82b5b9a53d"><path d="M 324.988281 107.527344 L 483.027344 265.566406 L 356.277344 392.316406 L 198.238281 234.277344 Z M 324.988281 107.527344 "/></clipPath><clipPath id="2996c65ccf"><path d="M 324.988281 107.527344 L 483.027344 265.566406 L 356.277344 392.316406 L 198.238281 234.277344 Z M 324.988281 107.527344 "/></clipPath><clipPath id="e896fff93b"><path d="M 403.011719 185.644531 L 482.980469 265.613281 L 422.457031 326.136719 L 342.488281 246.167969 Z M 403.011719 185.644531 "/></clipPath><clipPath id="34cb8019d5"><path d="M 470.519531 268.5 L 365.269531 268.632812 L 365.285156 255.835938 L 365.308594 236.734375 L 365.324219 223.941406 L 431.707031 223.855469 C 431.925781 223.511719 432.183594 223.1875 432.484375 222.886719 C 434.628906 220.742188 438.105469 220.738281 440.246094 222.875 C 442.386719 225.015625 442.382812 228.496094 440.238281 230.640625 C 438.089844 232.785156 434.613281 232.792969 432.472656 230.648438 C 432.171875 230.351562 431.917969 230.027344 431.703125 229.683594 L 371.144531 229.761719 L 371.136719 236.730469 L 444.492188 236.636719 C 444.707031 236.292969 444.964844 235.96875 445.265625 235.667969 C 447.410156 233.523438 450.886719 233.519531 453.027344 235.660156 C 455.167969 237.800781 455.164062 241.277344 453.019531 243.421875 C 450.875 245.566406 447.394531 245.574219 445.253906 243.433594 C 444.953125 243.132812 444.699219 242.808594 444.484375 242.464844 L 371.128906 242.558594 L 371.121094 250 L 457.746094 249.890625 C 457.960938 249.546875 458.21875 249.222656 458.519531 248.921875 C 460.664062 246.777344 464.140625 246.773438 466.28125 248.914062 C 468.421875 251.054688 468.417969 254.53125 466.273438 256.675781 C 464.128906 258.824219 460.648438 258.828125 458.507812 256.6875 C 458.210938 256.386719 457.953125 256.0625 457.738281 255.71875 L 371.113281 255.828125 L 371.105469 262.796875 L 470.527344 262.671875 C 470.742188 262.328125 471 262.003906 471.300781 261.703125 C 473.445312 259.554688 476.921875 259.554688 479.0625 261.695312 C 481.203125 263.835938 481.199219 267.308594 479.054688 269.457031 C 476.90625 271.601562 473.429688 271.609375 471.289062 269.46875 C 470.992188 269.171875 470.734375 268.84375 470.519531 268.5 "/></clipPath><clipPath id="8a8a401c41"><path d="M 403.316406 185.949219 L 482.9375 265.570312 L 422.574219 325.933594 L 342.953125 246.3125 Z M 403.316406 185.949219 "/></clipPath><radialGradient gradientTransform="matrix(0.706213,0.706213,-0.708,0.708,324.942227,107.574307)" id="d5e1ae0913" gradientUnits="userSpaceOnUse" r="49.97605" cx="167.350971" fx="167.350971" cy="42.630158" fy="42.630158"><stop style="stop-color:#130c0e;stop-opacity:1;" offset="0"/><stop style="stop-color:#130c0e;stop-opacity:1;" offset="1"/></radialGradient><clipPath id="ee8694e797"><path d="M 312 274 L 362 274 L 362 338 L 312 338 Z M 312 274 "/></clipPath><clipPath id="47cc74676d"><path d="M 261.847656 170.667969 L 367.914062 276.734375 L 307.457031 337.191406 L 201.390625 231.125 Z M 261.847656 170.667969 "/></clipPath><clipPath id="4d889eaada"><path d="M 324.988281 107.527344 L 483.027344 265.566406 L 356.277344 392.316406 L 198.238281 234.277344 Z M 324.988281 107.527344 "/></clipPath><clipPath id="6773a73cd0"><path d="M 324.988281 107.527344 L 483.027344 265.566406 L 356.277344 392.316406 L 198.238281 234.277344 Z M 324.988281 107.527344 "/></clipPath><clipPath id="dead5ee9bc"><path d="M 359.273438 379.832031 L 359.40625 274.582031 L 346.609375 274.597656 L 327.507812 274.621094 L 314.710938 274.640625 L 314.625 341.023438 C 314.285156 341.238281 313.957031 341.496094 313.660156 341.796875 C 311.515625 343.941406 311.507812 347.417969 313.648438 349.558594 C 315.785156 351.699219 319.265625 351.695312 321.414062 349.550781 C 323.558594 347.40625 323.558594 343.925781 321.417969 341.785156 C 321.121094 341.488281 320.796875 341.230469 320.453125 341.011719 L 320.53125 280.460938 L 327.5 280.449219 L 327.410156 353.804688 C 327.066406 354.019531 326.738281 354.277344 326.441406 354.578125 C 324.296875 356.722656 324.289062 360.199219 326.429688 362.339844 C 328.570312 364.480469 332.050781 364.476562 334.195312 362.332031 C 336.339844 360.1875 336.34375 356.710938 334.203125 354.570312 C 333.90625 354.269531 333.582031 354.011719 333.238281 353.796875 L 333.328125 280.445312 L 340.773438 280.433594 L 340.664062 367.058594 C 340.320312 367.273438 339.996094 367.535156 339.695312 367.832031 C 337.550781 369.976562 337.542969 373.453125 339.683594 375.59375 C 341.824219 377.734375 345.304688 377.730469 347.449219 375.585938 C 349.59375 373.441406 349.597656 369.964844 347.457031 367.824219 C 347.160156 367.523438 346.835938 367.269531 346.492188 367.050781 L 346.601562 280.425781 L 353.570312 280.417969 L 353.445312 379.839844 C 353.097656 380.054688 352.773438 380.3125 352.476562 380.613281 C 350.328125 382.757812 350.324219 386.238281 352.464844 388.378906 C 354.605469 390.519531 358.082031 390.511719 360.230469 388.363281 C 362.375 386.21875 362.378906 382.746094 360.238281 380.605469 C 359.941406 380.308594 359.617188 380.050781 359.273438 379.832031 "/></clipPath><radialGradient gradientTransform="matrix(0.706213,0.706213,-0.708,0.708,324.942227,107.574307)" id="4cb903596c" gradientUnits="userSpaceOnUse" r="49.976497" cx="167.410944" fx="167.410944" cy="136.238018" fy="136.238018"><stop style="stop-color:#130c0e;stop-opacity:1;" offset="0"/><stop style="stop-color:#130c0e;stop-opacity:1;" offset="1"/></radialGradient><clipPath id="268ee7302f"><path d="M 312 274 L 362 274 L 362 338 L 312 338 Z M 312 274 "/></clipPath><clipPath id="4c0c901717"><path d="M 261.847656 170.667969 L 367.914062 276.734375 L 307.457031 337.191406 L 201.390625 231.125 Z M 261.847656 170.667969 "/></clipPath><clipPath id="0483698ccd"><path d="M 324.988281 107.527344 L 483.027344 265.566406 L 356.277344 392.316406 L 198.238281 234.277344 Z M 324.988281 107.527344 "/></clipPath><clipPath id="b2d18b17a9"><path d="M 324.988281 107.527344 L 483.027344 265.566406 L 356.277344 392.316406 L 198.238281 234.277344 Z M 324.988281 107.527344 "/></clipPath><clipPath id="a612d897d8"><path d="M 337.101562 252.1875 L 417.070312 332.15625 L 356.546875 392.679688 L 276.578125 312.710938 Z M 337.101562 252.1875 "/></clipPath><clipPath id="908fa3d95d"><path d="M 359.273438 379.832031 L 359.40625 274.582031 L 346.609375 274.597656 L 327.507812 274.621094 L 314.710938 274.640625 L 314.625 341.023438 C 314.285156 341.238281 313.957031 341.496094 313.660156 341.796875 C 311.515625 343.941406 311.507812 347.417969 313.648438 349.558594 C 315.785156 351.699219 319.265625 351.695312 321.414062 349.550781 C 323.558594 347.40625 323.558594 343.925781 321.417969 341.785156 C 321.121094 341.488281 320.796875 341.230469 320.453125 341.011719 L 320.53125 280.460938 L 327.5 280.449219 L 327.410156 353.804688 C 327.066406 354.019531 326.738281 354.277344 326.441406 354.578125 C 324.296875 356.722656 324.289062 360.199219 326.429688 362.339844 C 328.570312 364.480469 332.050781 364.476562 334.195312 362.332031 C 336.339844 360.1875 336.34375 356.710938 334.203125 354.570312 C 333.90625 354.269531 333.582031 354.011719 333.238281 353.796875 L 333.328125 280.445312 L 340.773438 280.433594 L 340.664062 367.058594 C 340.320312 367.273438 339.996094 367.535156 339.695312 367.832031 C 337.550781 369.976562 337.542969 373.453125 339.683594 375.59375 C 341.824219 377.734375 345.304688 377.730469 347.449219 375.585938 C 349.59375 373.441406 349.597656 369.964844 347.457031 367.824219 C 347.160156 367.523438 346.835938 367.269531 346.492188 367.050781 L 346.601562 280.425781 L 353.570312 280.417969 L 353.445312 379.839844 C 353.097656 380.054688 352.773438 380.3125 352.476562 380.613281 C 350.328125 382.757812 350.324219 386.238281 352.464844 388.378906 C 354.605469 390.519531 358.082031 390.511719 360.230469 388.363281 C 362.375 386.21875 362.378906 382.746094 360.238281 380.605469 C 359.941406 380.308594 359.617188 380.050781 359.273438 379.832031 "/></clipPath><clipPath id="05b9517236"><path d="M 337.085938 252.265625 L 416.707031 331.886719 L 356.339844 392.253906 L 276.71875 312.632812 Z M 337.085938 252.265625 "/></clipPath><radialGradient gradientTransform="matrix(0.706213,0.706213,-0.708,0.708,324.942227,107.574307)" id="a1061b0149" gradientUnits="userSpaceOnUse" r="49.976497" cx="167.410944" fx="167.410944" cy="136.238018" fy="136.238018"><stop style="stop-color:#130c0e;stop-opacity:1;" offset="0"/><stop style="stop-color:#130c0e;stop-opacity:1;" offset="1"/></radialGradient><clipPath id="d037e96c14"><path d="M 202 170 L 360 170 L 360 269 L 202 269 Z M 202 170 "/></clipPath><clipPath id="5aa1bca317"><path d="M 261.847656 170.667969 L 367.914062 276.734375 L 307.457031 337.191406 L 201.390625 231.125 Z M 261.847656 170.667969 "/></clipPath><clipPath id="e1d46bd1b1"><path d="M 324.988281 107.527344 L 483.027344 265.566406 L 356.277344 392.316406 L 198.238281 234.277344 Z M 324.988281 107.527344 "/></clipPath><clipPath id="7e91d96640"><path d="M 324.988281 107.527344 L 483.027344 265.566406 L 356.277344 392.316406 L 198.238281 234.277344 Z M 324.988281 107.527344 "/></clipPath><clipPath id="dd512af820"><path d="M 337.453125 128.480469 L 320.746094 111.773438 L 320.597656 229.824219 L 202.542969 229.972656 L 219.25 246.683594 L 337.304688 246.535156 Z M 359.460938 229.777344 L 359.558594 150.585938 L 343.273438 134.300781 L 343.125 252.355469 L 225.074219 252.503906 L 241.359375 268.789062 L 320.550781 268.691406 L 359.410156 268.640625 Z M 359.460938 229.777344 "/></clipPath><radialGradient gradientTransform="matrix(0.706213,0.706213,-0.708,0.708,324.942227,107.574307)" id="d89615d414" gradientUnits="userSpaceOnUse" r="76.680038" cx="69.219573" fx="69.219573" cy="89.404322" fy="89.404322"><stop style="stop-color:#130c0e;stop-opacity:1;" offset="0"/><stop style="stop-color:#130c0e;stop-opacity:1;" offset="1"/></radialGradient><clipPath id="54da4a4fb8"><path d="M 284.625 269.121094 L 361.546875 269.121094 L 361.546875 337.5 L 284.625 337.5 Z M 284.625 269.121094 "/></clipPath></defs><g id="22053f390b"><g clip-rule="nonzero" clip-path="url(#a3f2d50aea)"><g clip-rule="nonzero" clip-path="url(#5abeb1d909)"><path style=" stroke:none;fill-rule:nonzero;fill:url(#7f6735af84);" d="M 117.796875 90.179688 L 117.796875 175.550781 L 230.398438 175.550781 L 230.398438 90.179688 Z M 117.796875 90.179688 "/></g></g><g clip-rule="nonzero" clip-path="url(#76e051085b)"><g clip-rule="nonzero" clip-path="url(#0f9fad3afc)"><path style=" stroke:none;fill-rule:nonzero;fill:url(#9c2a91f55d);" d="M 117.796875 90.179688 L 117.796875 175.550781 L 230.398438 175.550781 L 230.398438 90.179688 Z M 117.796875 90.179688 "/></g></g><g clip-rule="nonzero" clip-path="url(#49041b7521)"><g clip-rule="nonzero" clip-path="url(#ab79a5f63f)"><path style=" stroke:none;fill-rule:nonzero;fill:url(#843f102e37);" d="M 117.855469 183.902344 L 117.855469 269.277344 L 230.457031 269.277344 L 230.457031 183.902344 Z M 117.855469 183.902344 "/></g></g><g clip-rule="nonzero" clip-path="url(#dc4d26fb3e)"><g clip-rule="nonzero" clip-path="url(#484e811670)"><path style=" stroke:none;fill-rule:nonzero;fill:url(#497681bd45);" d="M 117.855469 183.902344 L 117.855469 269.277344 L 230.457031 269.277344 L 230.457031 183.902344 Z M 117.855469 183.902344 "/></g></g><g clip-rule="nonzero" clip-path="url(#6e0bdd0108)"><g clip-rule="evenodd" clip-path="url(#201c7f0e93)"><path style=" stroke:none;fill-rule:nonzero;fill:url(#7fd28f2c71);" d="M 6.957031 96.117188 L 6.957031 263.28125 L 145.222656 263.28125 L 145.222656 96.117188 Z M 6.957031 96.117188 "/></g></g><g clip-rule="nonzero" clip-path="url(#a03a54ba26)"><g clip-rule="nonzero" clip-path="url(#0496fe3df4)"><g clip-rule="nonzero" clip-path="url(#6d2d5c40e6)"><g clip-rule="nonzero" clip-path="url(#cabb7094fc)"><g clip-rule="nonzero" clip-path="url(#6ae1e29818)"><path style=" stroke:none;fill-rule:nonzero;fill:url(#4ce21ad984);" d="M 366.59375 219.414062 L 339.835938 246.171875 L 366.59375 272.929688 L 393.351562 246.171875 Z M 366.59375 219.414062 "/></g></g></g></g></g><g clip-rule="nonzero" clip-path="url(#65242a9fcf)"><g clip-rule="nonzero" clip-path="url(#16b35d26b0)"><g clip-rule="nonzero" clip-path="url(#82b5b9a53d)"><g clip-rule="nonzero" clip-path="url(#2996c65ccf)"><g clip-rule="nonzero" clip-path="url(#e896fff93b)"><g clip-rule="nonzero" clip-path="url(#34cb8019d5)"><g clip-rule="nonzero" clip-path="url(#8a8a401c41)"><path style=" stroke:none;fill-rule:nonzero;fill:url(#d5e1ae0913);" d="M 366.59375 219.414062 L 339.835938 246.171875 L 366.59375 272.929688 L 393.351562 246.171875 Z M 366.59375 219.414062 "/></g></g></g></g></g></g></g><g clip-rule="nonzero" clip-path="url(#ee8694e797)"><g clip-rule="nonzero" clip-path="url(#47cc74676d)"><g clip-rule="nonzero" clip-path="url(#4d889eaada)"><g clip-rule="nonzero" clip-path="url(#6773a73cd0)"><g clip-rule="nonzero" clip-path="url(#dead5ee9bc)"><path style=" stroke:none;fill-rule:nonzero;fill:url(#4cb903596c);" d="M 336.941406 249.148438 L 280.203125 305.886719 L 336.941406 362.625 L 393.683594 305.886719 Z M 336.941406 249.148438 "/></g></g></g></g></g><g clip-rule="nonzero" clip-path="url(#268ee7302f)"><g clip-rule="nonzero" clip-path="url(#4c0c901717)"><g clip-rule="nonzero" clip-path="url(#0483698ccd)"><g clip-rule="nonzero" clip-path="url(#b2d18b17a9)"><g clip-rule="nonzero" clip-path="url(#a612d897d8)"><g clip-rule="nonzero" clip-path="url(#908fa3d95d)"><g clip-rule="nonzero" clip-path="url(#05b9517236)"><path style=" stroke:none;fill-rule:nonzero;fill:url(#a1061b0149);" d="M 336.941406 249.148438 L 280.203125 305.886719 L 336.941406 362.625 L 393.683594 305.886719 Z M 336.941406 249.148438 "/></g></g></g></g></g></g></g><g clip-rule="nonzero" clip-path="url(#d037e96c14)"><g clip-rule="nonzero" clip-path="url(#5aa1bca317)"><g clip-rule="nonzero" clip-path="url(#e1d46bd1b1)"><g clip-rule="nonzero" clip-path="url(#7e91d96640)"><g clip-rule="evenodd" clip-path="url(#dd512af820)"><path style=" stroke:none;fill-rule:nonzero;fill:url(#d89615d414);" d="M 281.050781 92.15625 L 153.480469 219.726562 L 281.050781 347.296875 L 408.621094 219.726562 Z M 281.050781 92.15625 "/></g></g></g></g></g><g clip-rule="nonzero" clip-path="url(#54da4a4fb8)"><path style=" stroke:none;fill-rule:nonzero;fill:#ffffff;fill-opacity:1;" d="M 284.625 269.121094 L 361.550781 269.121094 L 361.550781 337.5 L 284.625 337.5 Z M 284.625 269.121094 "/></g></g></svg>